<svg xmlns="http://www.w3.org/2000/svg" viewBox="0 0 48 48" fill="none" role="img" aria-label="Test Case Generator">
  <defs>
    <linearGradient id="document-gradient" x1="5" y1="5" x2="39" y2="43" gradientUnits="userSpaceOnUse">
      <stop stop-color="#60A5FA"/>
      <stop offset="1" stop-color="#A78BFA"/>
    </linearGradient>
    <linearGradient id="badge-gradient" x1="26" y1="26" x2="46" y2="46" gradientUnits="userSpaceOnUse">
      <stop stop-color="#6366F1"/>
      <stop offset="1" stop-color="#8B5CF6"/>
    </linearGradient>
  </defs>
  <path d="M10 5H28L36 13V37C36 40.314 33.314 43 30 43H10C6.686 43 4 40.314 4 37V11C4 7.686 6.686 5 10 5Z" fill="url(#document-gradient)"/>
  <path d="M28 5V12C28 12.552 28.448 13 29 13H36" fill="white" opacity=".34"/>
  <path d="M11 20H29M11 27H29M11 34H22" stroke="white" stroke-width="2.4" stroke-linecap="round" opacity=".94"/>
  <circle cx="36" cy="36" r="10" fill="url(#badge-gradient)" stroke="white" stroke-width="2.4"/>
  <path d="M31 36L34.3 39.3L41 32.6" stroke="white" stroke-width="2.6" stroke-linecap="round" stroke-linejoin="round"/>
</svg>
